<svg xmlns="http://www.w3.org/2000/svg" viewBox="10 -14.48 1002.8 317.43" width="1002.8" height="317.43" fill="none" stroke="currentColor" stroke-width="0.8" stroke-linecap="round" stroke-linejoin="round" class="symbulator-schematic"><style>.symbulator-schematic .lbl{font:14px/1 'Times New Roman',Times,'Liberation Serif',serif;fill:currentColor;stroke:none}.symbulator-schematic .sub{font-size:0.7em}.symbulator-schematic .ref{fill:var(--schematic-ref,#005b7f)}.symbulator-schematic .refk{stroke:var(--schematic-ref,#005b7f)}.symbulator-schematic .refh{fill:var(--schematic-ref,#005b7f);stroke:none}.symbulator-schematic .mesh{stroke:var(--accent,currentColor);opacity:.75}.symbulator-schematic .mesh-head{fill:var(--accent,currentColor);stroke:none;opacity:.75}.symbulator-schematic .bh-node{stroke:var(--accent,currentColor);fill:none;opacity:.85}.symbulator-schematic .bh-encl{stroke:var(--accent,currentColor);fill:none;opacity:.8;stroke-dasharray:5 4}.symbulator-schematic .mesh-lbl{font:12px/1 'Times New Roman',Times,'Liberation Serif',serif;fill:var(--accent,currentColor);stroke:none;opacity:.9}.symbulator-schematic .bh-cap{font:11px/1 'Times New Roman',Times,'Liberation Serif',serif;fill:var(--accent,currentColor);stroke:none;opacity:.9;letter-spacing:.04em}</style><g transform="translate(58,146)" stroke-width="1.2"><path d="M0 0 L36.5 0 Q38 0 38.5878 1.38004 L40.4789 5.81996 Q41.0667 7.2 41.6545 5.81996 L46.6122 -5.81996 Q47.2 -7.2 47.7878 -5.81996 L52.7455 5.81996 Q53.3333 7.2 53.9211 5.81996 L58.8789 -5.81996 Q59.4667 -7.2 60.0545 -5.81996 L65.0122 5.81996 Q65.6 7.2 66.1878 5.81996 L71.1455 -5.81996 Q71.7333 -7.2 72.3211 -5.81996 L74.2122 -1.38004 Q74.8 0 76.3 0 L112.8 0"/></g><text class="lbl" x="114.4" y="131.89" text-anchor="middle"><tspan dy="0">150 Ω</tspan></text><text class="lbl" x="114.4" y="115.24" text-anchor="middle"><tspan font-style="italic" dy="0">R</tspan><tspan class="sub" dy="2.9">1</tspan></text><g transform="translate(170.8,58)" stroke-width="1.2"><path d="M0 0 L103.705 0 M115.187 0 L218.892 0"/><path d="M103.705 -12.48 L103.705 12.48"/><path d="M115.187 -12.48 Q105.971 0 115.187 12.48"/></g><text class="lbl" x="280.246" y="37.92" text-anchor="middle"><tspan dy="0">3p F</tspan></text><text class="lbl" x="280.246" y="21.27" text-anchor="middle"><tspan font-style="italic" dy="0">C</tspan><tspan class="sub" font-style="italic" dy="2.9">C2</tspan></text><g transform="translate(389.692,58)" stroke-width="1.2"><path d="M0 0 L92.9 0 Q94.4 0 94.9878 1.38004 L96.8789 5.81996 Q97.4667 7.2 98.0545 5.81996 L103.012 -5.81996 Q103.6 -7.2 104.188 -5.81996 L109.146 5.81996 Q109.733 7.2 110.321 5.81996 L115.279 -5.81996 Q115.867 -7.2 116.454 -5.81996 L121.412 5.81996 Q122 7.2 122.588 5.81996 L127.546 -5.81996 Q128.133 -7.2 128.721 -5.81996 L130.612 -1.38004 Q131.2 0 132.7 0 L225.6 0"/></g><text class="lbl" x="502.492" y="43.89" text-anchor="middle"><tspan dy="0">100 Ω</tspan></text><text class="lbl" x="502.492" y="27.24" text-anchor="middle"><tspan font-style="italic" dy="0">R</tspan><tspan class="sub" dy="2.9">4</tspan></text><g transform="translate(615.292,58)" stroke-width="1.2"><path d="M0 0 L103.705 0 M115.187 0 L218.892 0"/><path d="M103.705 -12.48 L103.705 12.48"/><path d="M115.187 -12.48 Q105.971 0 115.187 12.48"/></g><text class="lbl" x="724.738" y="37.92" text-anchor="middle"><tspan dy="0">3p F</tspan></text><text class="lbl" x="724.738" y="21.27" text-anchor="middle"><tspan font-style="italic" dy="0">C</tspan><tspan class="sub" font-style="italic" dy="2.9">C4</tspan></text><g transform="translate(58,146) rotate(90)" stroke-width="1.2"><path d="M0 0 L30.8 0 M64.4 0 L95.2 0"/><circle cx="47.6" cy="0" r="16.8" fill="none"/></g><text class="lbl" x="80.9" y="187.7" text-anchor="start"><tspan font-style="italic" dy="0">E</tspan><tspan class="sub" dy="2.9">1</tspan></text><text class="lbl" x="80.9" y="204.35" text-anchor="start"><tspan dy="0">vg</tspan></text><path d="M53.68 184.16 L62.32 184.16 M58 179.84 L58 188.48" stroke-width="0.8"/><path d="M53.68 203.04 L62.32 203.04" stroke-width="0.8"/><g transform="translate(170.8,146) rotate(90)" stroke-width="1.2"><path d="M0 0 L27.7 0 Q29.2 0 29.7878 1.38004 L31.6789 5.81996 Q32.2667 7.2 32.8545 5.81996 L37.8122 -5.81996 Q38.4 -7.2 38.9878 -5.81996 L43.9455 5.81996 Q44.5333 7.2 45.1211 5.81996 L50.0789 -5.81996 Q50.6667 -7.2 51.2545 -5.81996 L56.2122 5.81996 Q56.8 7.2 57.3878 5.81996 L62.3455 -5.81996 Q62.9333 -7.2 63.5211 -5.81996 L65.4122 -1.38004 Q66 0 67.5 0 L95.2 0"/></g><text class="lbl" x="183.41" y="187.7" text-anchor="start"><tspan font-style="italic" dy="0">R</tspan><tspan class="sub" dy="2.9">2</tspan></text><text class="lbl" x="183.41" y="204.35" text-anchor="start"><tspan dy="0">1k Ω</tspan></text><g transform="translate(274.408,146) rotate(90)" stroke-width="1.2"><path d="M0 0 L41.8592 0 M53.3408 0 L95.2 0"/><path d="M41.8592 -12.48 L41.8592 12.48"/><path d="M53.3408 -12.48 Q44.1248 0 53.3408 12.48"/></g><text class="lbl" x="292.988" y="187.7" text-anchor="start"><tspan font-style="italic" dy="0">C</tspan><tspan class="sub" font-style="italic" dy="2.9">C1</tspan></text><text class="lbl" x="292.988" y="204.35" text-anchor="start"><tspan dy="0">100p F</tspan></text><g transform="translate(389.692,146) rotate(90)" stroke-width="1.2"><path d="M0 0 L26 0 M69.2 0 L95.2 0"/><path d="M26 0 L47.6 -12.8 L69.2 0 L47.6 12.8 Z" fill="none" stroke-linejoin="miter"/><path d="M38 0 L48.528 0" stroke-width="0.8"/><path d="M48.528 -2.32 L57.2 0 L48.528 2.32 Z" fill="currentColor" stroke="none"/></g><text class="lbl" x="408.592" y="187.7" text-anchor="start"><tspan font-style="italic" dy="0">J</tspan><tspan class="sub" font-style="italic" dy="2.9">D1</tspan></text><text class="lbl" x="408.592" y="204.35" text-anchor="start"><tspan dy="0">0.05</tspan><tspan font-style="italic" dy="0">v</tspan><tspan class="sub" dy="2.9">1</tspan></text><g transform="translate(502.492,146) rotate(90)" stroke-width="1.2"><path d="M0 0 L27.7 0 Q29.2 0 29.7878 1.38004 L31.6789 5.81996 Q32.2667 7.2 32.8545 5.81996 L37.8122 -5.81996 Q38.4 -7.2 38.9878 -5.81996 L43.9455 5.81996 Q44.5333 7.2 45.1211 5.81996 L50.0789 -5.81996 Q50.6667 -7.2 51.2545 -5.81996 L56.2122 5.81996 Q56.8 7.2 57.3878 5.81996 L62.3455 -5.81996 Q62.9333 -7.2 63.5211 -5.81996 L65.4122 -1.38004 Q66 0 67.5 0 L95.2 0"/></g><text class="lbl" x="515.102" y="187.7" text-anchor="start"><tspan font-style="italic" dy="0">R</tspan><tspan class="sub" dy="2.9">3</tspan></text><text class="lbl" x="515.102" y="204.35" text-anchor="start"><tspan dy="0">2k Ω</tspan></text><g transform="translate(615.292,146) rotate(90)" stroke-width="1.2"><path d="M0 0 L27.7 0 Q29.2 0 29.7878 1.38004 L31.6789 5.81996 Q32.2667 7.2 32.8545 5.81996 L37.8122 -5.81996 Q38.4 -7.2 38.9878 -5.81996 L43.9455 5.81996 Q44.5333 7.2 45.1211 5.81996 L50.0789 -5.81996 Q50.6667 -7.2 51.2545 -5.81996 L56.2122 5.81996 Q56.8 7.2 57.3878 5.81996 L62.3455 -5.81996 Q62.9333 -7.2 63.5211 -5.81996 L65.4122 -1.38004 Q66 0 67.5 0 L95.2 0"/></g><text class="lbl" x="627.902" y="187.7" text-anchor="start"><tspan font-style="italic" dy="0">R</tspan><tspan class="sub" dy="2.9">5</tspan></text><text class="lbl" x="627.902" y="204.35" text-anchor="start"><tspan dy="0">1k Ω</tspan></text><g transform="translate(718.9,146) rotate(90)" stroke-width="1.2"><path d="M0 0 L41.8592 0 M53.3408 0 L95.2 0"/><path d="M41.8592 -12.48 L41.8592 12.48"/><path d="M53.3408 -12.48 Q44.1248 0 53.3408 12.48"/></g><text class="lbl" x="737.48" y="187.7" text-anchor="start"><tspan font-style="italic" dy="0">C</tspan><tspan class="sub" font-style="italic" dy="2.9">C3</tspan></text><text class="lbl" x="737.48" y="204.35" text-anchor="start"><tspan dy="0">100p F</tspan></text><g transform="translate(834.184,146) rotate(90)" stroke-width="1.2"><path d="M0 0 L26 0 M69.2 0 L95.2 0"/><path d="M26 0 L47.6 -12.8 L69.2 0 L47.6 12.8 Z" fill="none" stroke-linejoin="miter"/><path d="M38 0 L48.528 0" stroke-width="0.8"/><path d="M48.528 -2.32 L57.2 0 L48.528 2.32 Z" fill="currentColor" stroke="none"/></g><text class="lbl" x="853.084" y="187.7" text-anchor="start"><tspan font-style="italic" dy="0">J</tspan><tspan class="sub" font-style="italic" dy="2.9">D2</tspan></text><text class="lbl" x="853.084" y="204.35" text-anchor="start"><tspan dy="0">0.05</tspan><tspan font-style="italic" dy="0">v</tspan><tspan class="sub" dy="2.9">3</tspan></text><g transform="translate(946.584,146) rotate(90)" stroke-width="1.2"><path d="M0 0 L27.7 0 Q29.2 0 29.7878 1.38004 L31.6789 5.81996 Q32.2667 7.2 32.8545 5.81996 L37.8122 -5.81996 Q38.4 -7.2 38.9878 -5.81996 L43.9455 5.81996 Q44.5333 7.2 45.1211 5.81996 L50.0789 -5.81996 Q50.6667 -7.2 51.2545 -5.81996 L56.2122 5.81996 Q56.8 7.2 57.3878 5.81996 L62.3455 -5.81996 Q62.9333 -7.2 63.5211 -5.81996 L65.4122 -1.38004 Q66 0 67.5 0 L95.2 0"/></g><text class="lbl" x="959.194" y="187.7" text-anchor="start"><tspan font-style="italic" dy="0">R</tspan><tspan class="sub" dy="2.9">6</tspan></text><text class="lbl" x="959.194" y="204.35" text-anchor="start"><tspan dy="0">2k Ω</tspan></text><path d="M58 241.2 L58 253.2"/><path d="M49 253.2 L67 253.2" stroke-width="1.2"/><path d="M52 256.7 L64 256.7" stroke-width="1.2"/><path d="M55 260.2 L61 260.2" stroke-width="1.2"/><text class="lbl" x="58" y="273.95" text-anchor="middle"><tspan dy="0">0</tspan></text><text class="lbl" x="64" y="138.4" text-anchor="start"><tspan dy="0">5</tspan></text><text class="lbl" x="176.8" y="138.4" text-anchor="start"><tspan dy="0">1</tspan></text><text class="lbl" x="395.692" y="138.4" text-anchor="start"><tspan dy="0">2</tspan></text><text class="lbl" x="621.292" y="138.4" text-anchor="start"><tspan dy="0">3</tspan></text><text class="lbl" x="840.184" y="138.4" text-anchor="start"><tspan dy="0">4</tspan></text><line x1="170.8" y1="146" x2="274.408" y2="146"/><line x1="389.692" y1="146" x2="502.492" y2="146"/><line x1="615.292" y1="146" x2="718.9" y2="146"/><line x1="834.184" y1="146" x2="946.584" y2="146"/><line x1="58" y1="241.2" x2="946.584" y2="241.2"/><line x1="170.8" y1="58" x2="170.8" y2="146"/><line x1="389.692" y1="58" x2="389.692" y2="146"/><line x1="615.292" y1="58" x2="615.292" y2="146"/><line x1="834.184" y1="58" x2="834.184" y2="146"/><circle cx="170.8" cy="241.2" r="3.2" fill="currentColor" stroke="none"/><circle cx="274.408" cy="241.2" r="3.2" fill="currentColor" stroke="none"/><circle cx="389.692" cy="241.2" r="3.2" fill="currentColor" stroke="none"/><circle cx="502.492" cy="241.2" r="3.2" fill="currentColor" stroke="none"/><circle cx="615.292" cy="241.2" r="3.2" fill="currentColor" stroke="none"/><circle cx="718.9" cy="241.2" r="3.2" fill="currentColor" stroke="none"/><circle cx="834.184" cy="241.2" r="3.2" fill="currentColor" stroke="none"/><circle cx="170.8" cy="146" r="3.2" fill="currentColor" stroke="none"/><circle cx="389.692" cy="146" r="3.2" fill="currentColor" stroke="none"/><circle cx="615.292" cy="146" r="3.2" fill="currentColor" stroke="none"/><circle cx="834.184" cy="146" r="3.2" fill="currentColor" stroke="none"/></svg>