<svg xmlns="http://www.w3.org/2000/svg" viewBox="10 -16 999.828 330.05" width="999.828" height="330.05" fill="none" stroke="currentColor" stroke-width="1.7" stroke-linecap="round" stroke-linejoin="round" class="symbulator-schematic"><style>.symbulator-schematic .lbl{font:13px/1 ui-sans-serif,system-ui,sans-serif;fill:currentColor;stroke:none}.symbulator-schematic .sub{font-size:0.72em}.symbulator-schematic .mesh{stroke:var(--accent,currentColor);opacity:.75}.symbulator-schematic .mesh-head{fill:var(--accent,currentColor);stroke:none;opacity:.75}.symbulator-schematic .bh-node{stroke:var(--accent,currentColor);fill:none;opacity:.85}.symbulator-schematic .bh-encl{stroke:var(--accent,currentColor);fill:none;opacity:.8;stroke-dasharray:5 4}.symbulator-schematic .mesh-lbl{font:12px/1 ui-sans-serif,system-ui,sans-serif;fill:var(--accent,currentColor);stroke:none;opacity:.9}.symbulator-schematic .bh-cap{font:11px/1 ui-sans-serif,system-ui,sans-serif;fill:var(--accent,currentColor);stroke:none;opacity:.9;letter-spacing:.04em}</style><g transform="translate(58,146)"><path d="M0 0 L36.5 0 Q38 0 38.5878 1.38004 L40.4789 5.81996 Q41.0667 7.2 41.6545 5.81996 L46.6122 -5.81996 Q47.2 -7.2 47.7878 -5.81996 L52.7455 5.81996 Q53.3333 7.2 53.9211 5.81996 L58.8789 -5.81996 Q59.4667 -7.2 60.0545 -5.81996 L65.0122 5.81996 Q65.6 7.2 66.1878 5.81996 L71.1455 -5.81996 Q71.7333 -7.2 72.3211 -5.81996 L74.2122 -1.38004 Q74.8 0 76.3 0 L112.8 0"/></g><text class="lbl" x="114.4" y="131.39" text-anchor="middle"><tspan dy="0">150Ω</tspan></text><text class="lbl" x="114.4" y="114.49" text-anchor="middle"><tspan dy="0">R</tspan><tspan class="sub" dy="3.4">1</tspan></text><g transform="translate(170.8,58)"><path d="M0 0 L102.35 0 M113.35 0 L215.7 0"/><path d="M102.35 -13 L102.35 13"/><path d="M113.35 -13 L113.35 13"/></g><text class="lbl" x="278.65" y="36.9" text-anchor="middle"><tspan dy="0">3pF</tspan></text><text class="lbl" x="278.65" y="20" text-anchor="middle"><tspan dy="0">C</tspan><tspan class="sub" dy="3.4">C2</tspan></text><g transform="translate(386.5,58)"><path d="M0 0 L95.092 0 Q96.592 0 97.1798 1.38004 L99.0709 5.81996 Q99.6587 7.2 100.246 5.81996 L105.204 -5.81996 Q105.792 -7.2 106.38 -5.81996 L111.338 5.81996 Q111.925 7.2 112.513 5.81996 L117.471 -5.81996 Q118.059 -7.2 118.646 -5.81996 L123.604 5.81996 Q124.192 7.2 124.78 5.81996 L129.738 -5.81996 Q130.325 -7.2 130.913 -5.81996 L132.804 -1.38004 Q133.392 0 134.892 0 L229.984 0"/></g><text class="lbl" x="501.492" y="43.39" text-anchor="middle"><tspan dy="0">100Ω</tspan></text><text class="lbl" x="501.492" y="26.49" text-anchor="middle"><tspan dy="0">R</tspan><tspan class="sub" dy="3.4">4</tspan></text><g transform="translate(616.484,58)"><path d="M0 0 L102.35 0 M113.35 0 L215.7 0"/><path d="M102.35 -13 L102.35 13"/><path d="M113.35 -13 L113.35 13"/></g><text class="lbl" x="724.334" y="36.9" text-anchor="middle"><tspan dy="0">3pF</tspan></text><text class="lbl" x="724.334" y="20" text-anchor="middle"><tspan dy="0">C</tspan><tspan class="sub" dy="3.4">C4</tspan></text><g transform="translate(58,146) rotate(90)"><path d="M0 0 L35.9 0 M68.9 0 L104.8 0"/><circle cx="52.4" cy="0" r="16.5" fill="none"/></g><text class="lbl" x="80.85" y="192.4" text-anchor="start"><tspan dy="0">E</tspan><tspan class="sub" dy="3.4">1</tspan></text><text class="lbl" x="80.85" y="211.4" text-anchor="start"><tspan dy="0">vg</tspan></text><path d="M54.5 191.4 L61.5 191.4 M58 187.9 L58 194.9"/><path d="M54.5 205.4 L61.5 205.4"/><g transform="translate(170.8,146) rotate(90)"><path d="M0 0 L32.5 0 Q34 0 34.5878 1.38004 L36.4789 5.81996 Q37.0667 7.2 37.6545 5.81996 L42.6122 -5.81996 Q43.2 -7.2 43.7878 -5.81996 L48.7455 5.81996 Q49.3333 7.2 49.9211 5.81996 L54.8789 -5.81996 Q55.4667 -7.2 56.0545 -5.81996 L61.0122 5.81996 Q61.6 7.2 62.1878 5.81996 L67.1455 -5.81996 Q67.7333 -7.2 68.3211 -5.81996 L70.2122 -1.38004 Q70.8 0 72.3 0 L104.8 0"/></g><text class="lbl" x="183.66" y="192.4" text-anchor="start"><tspan dy="0">R</tspan><tspan class="sub" dy="3.4">2</tspan></text><text class="lbl" x="183.66" y="211.4" text-anchor="start"><tspan dy="0">1kΩ</tspan></text><g transform="translate(274.5,146) rotate(90)"><path d="M0 0 L46.9 0 M57.9 0 L104.8 0"/><path d="M46.9 -13 L46.9 13"/><path d="M57.9 -13 L57.9 13"/></g><text class="lbl" x="293.85" y="192.4" text-anchor="start"><tspan dy="0">C</tspan><tspan class="sub" dy="3.4">C1</tspan></text><text class="lbl" x="293.85" y="211.4" text-anchor="start"><tspan dy="0">100pF</tspan></text><g transform="translate(386.5,146) rotate(90)"><path d="M0 0 L35.9 0 M68.9 0 L104.8 0"/><path d="M35.9 0 L52.4 -16.5 L68.9 0 L52.4 16.5 Z" fill="none" stroke-linejoin="miter"/><path d="M43.4 0 L61.4 0"/><path d="M55.4 -4 L61.4 0 L55.4 4" fill="currentColor"/></g><text class="lbl" x="409.35" y="192.4" text-anchor="start"><tspan dy="0">J</tspan><tspan class="sub" dy="3.4">D1</tspan></text><text class="lbl" x="409.35" y="211.4" text-anchor="start"><tspan dy="0">0.05</tspan><tspan font-style="italic" dy="0">v</tspan><tspan class="sub" dy="3.4">1</tspan></text><g transform="translate(503.684,146) rotate(90)"><path d="M0 0 L32.5 0 Q34 0 34.5878 1.38004 L36.4789 5.81996 Q37.0667 7.2 37.6545 5.81996 L42.6122 -5.81996 Q43.2 -7.2 43.7878 -5.81996 L48.7455 5.81996 Q49.3333 7.2 49.9211 5.81996 L54.8789 -5.81996 Q55.4667 -7.2 56.0545 -5.81996 L61.0122 5.81996 Q61.6 7.2 62.1878 5.81996 L67.1455 -5.81996 Q67.7333 -7.2 68.3211 -5.81996 L70.2122 -1.38004 Q70.8 0 72.3 0 L104.8 0"/></g><text class="lbl" x="516.544" y="192.4" text-anchor="start"><tspan dy="0">R</tspan><tspan class="sub" dy="3.4">3</tspan></text><text class="lbl" x="516.544" y="211.4" text-anchor="start"><tspan dy="0">2kΩ</tspan></text><g transform="translate(616.484,146) rotate(90)"><path d="M0 0 L32.5 0 Q34 0 34.5878 1.38004 L36.4789 5.81996 Q37.0667 7.2 37.6545 5.81996 L42.6122 -5.81996 Q43.2 -7.2 43.7878 -5.81996 L48.7455 5.81996 Q49.3333 7.2 49.9211 5.81996 L54.8789 -5.81996 Q55.4667 -7.2 56.0545 -5.81996 L61.0122 5.81996 Q61.6 7.2 62.1878 5.81996 L67.1455 -5.81996 Q67.7333 -7.2 68.3211 -5.81996 L70.2122 -1.38004 Q70.8 0 72.3 0 L104.8 0"/></g><text class="lbl" x="629.344" y="192.4" text-anchor="start"><tspan dy="0">R</tspan><tspan class="sub" dy="3.4">5</tspan></text><text class="lbl" x="629.344" y="211.4" text-anchor="start"><tspan dy="0">1kΩ</tspan></text><g transform="translate(720.184,146) rotate(90)"><path d="M0 0 L46.9 0 M57.9 0 L104.8 0"/><path d="M46.9 -13 L46.9 13"/><path d="M57.9 -13 L57.9 13"/></g><text class="lbl" x="739.534" y="192.4" text-anchor="start"><tspan dy="0">C</tspan><tspan class="sub" dy="3.4">C3</tspan></text><text class="lbl" x="739.534" y="211.4" text-anchor="start"><tspan dy="0">100pF</tspan></text><g transform="translate(832.184,146) rotate(90)"><path d="M0 0 L35.9 0 M68.9 0 L104.8 0"/><path d="M35.9 0 L52.4 -16.5 L68.9 0 L52.4 16.5 Z" fill="none" stroke-linejoin="miter"/><path d="M43.4 0 L61.4 0"/><path d="M55.4 -4 L61.4 0 L55.4 4" fill="currentColor"/></g><text class="lbl" x="855.034" y="192.4" text-anchor="start"><tspan dy="0">J</tspan><tspan class="sub" dy="3.4">D2</tspan></text><text class="lbl" x="855.034" y="211.4" text-anchor="start"><tspan dy="0">0.05</tspan><tspan font-style="italic" dy="0">v</tspan><tspan class="sub" dy="3.4">3</tspan></text><g transform="translate(949.368,146) rotate(90)"><path d="M0 0 L32.5 0 Q34 0 34.5878 1.38004 L36.4789 5.81996 Q37.0667 7.2 37.6545 5.81996 L42.6122 -5.81996 Q43.2 -7.2 43.7878 -5.81996 L48.7455 5.81996 Q49.3333 7.2 49.9211 5.81996 L54.8789 -5.81996 Q55.4667 -7.2 56.0545 -5.81996 L61.0122 5.81996 Q61.6 7.2 62.1878 5.81996 L67.1455 -5.81996 Q67.7333 -7.2 68.3211 -5.81996 L70.2122 -1.38004 Q70.8 0 72.3 0 L104.8 0"/></g><text class="lbl" x="962.228" y="192.4" text-anchor="start"><tspan dy="0">R</tspan><tspan class="sub" dy="3.4">6</tspan></text><text class="lbl" x="962.228" y="211.4" text-anchor="start"><tspan dy="0">2kΩ</tspan></text><path d="M58 250.8 L58 262.8"/><path d="M47 262.8 L69 262.8"/><path d="M51 266.8 L65 266.8"/><path d="M55 270.8 L61 270.8"/><text class="lbl" x="58" y="284.8" text-anchor="middle"><tspan dy="0">0</tspan></text><text class="lbl" x="64" y="137.9" text-anchor="start"><tspan dy="0">5</tspan></text><text class="lbl" x="176.8" y="137.9" text-anchor="start"><tspan dy="0">1</tspan></text><text class="lbl" x="392.5" y="137.9" text-anchor="start"><tspan dy="0">2</tspan></text><text class="lbl" x="622.484" y="137.9" text-anchor="start"><tspan dy="0">3</tspan></text><text class="lbl" x="838.184" y="137.9" text-anchor="start"><tspan dy="0">4</tspan></text><line x1="170.8" y1="146" x2="274.5" y2="146"/><line x1="386.5" y1="146" x2="503.684" y2="146"/><line x1="616.484" y1="146" x2="720.184" y2="146"/><line x1="832.184" y1="146" x2="949.368" y2="146"/><line x1="58" y1="250.8" x2="949.368" y2="250.8"/><line x1="170.8" y1="58" x2="170.8" y2="146"/><line x1="386.5" y1="58" x2="386.5" y2="146"/><line x1="616.484" y1="58" x2="616.484" y2="146"/><line x1="832.184" y1="58" x2="832.184" y2="146"/><circle cx="170.8" cy="250.8" r="3.4" fill="currentColor" stroke="none"/><circle cx="274.5" cy="250.8" r="3.4" fill="currentColor" stroke="none"/><circle cx="386.5" cy="250.8" r="3.4" fill="currentColor" stroke="none"/><circle cx="503.684" cy="250.8" r="3.4" fill="currentColor" stroke="none"/><circle cx="616.484" cy="250.8" r="3.4" fill="currentColor" stroke="none"/><circle cx="720.184" cy="250.8" r="3.4" fill="currentColor" stroke="none"/><circle cx="832.184" cy="250.8" r="3.4" fill="currentColor" stroke="none"/><circle cx="170.8" cy="146" r="3.4" fill="currentColor" stroke="none"/><circle cx="386.5" cy="146" r="3.4" fill="currentColor" stroke="none"/><circle cx="616.484" cy="146" r="3.4" fill="currentColor" stroke="none"/><circle cx="832.184" cy="146" r="3.4" fill="currentColor" stroke="none"/></svg>