<svg xmlns="http://www.w3.org/2000/svg" viewBox="10 -9.50998 485.05 323.56" width="485.05" height="323.56" fill="none" stroke="currentColor" stroke-width="1.7" stroke-linecap="round" stroke-linejoin="round" class="symbulator-schematic"><style>.symbulator-schematic .lbl{font:13px/1 ui-sans-serif,system-ui,sans-serif;fill:currentColor;stroke:none}.symbulator-schematic .sub{font-size:0.72em}.symbulator-schematic .mesh{stroke:var(--accent,currentColor);opacity:.75}.symbulator-schematic .mesh-head{fill:var(--accent,currentColor);stroke:none;opacity:.75}.symbulator-schematic .bh-node{stroke:var(--accent,currentColor);fill:none;opacity:.85}.symbulator-schematic .bh-encl{stroke:var(--accent,currentColor);fill:none;opacity:.8;stroke-dasharray:5 4}.symbulator-schematic .mesh-lbl{font:12px/1 ui-sans-serif,system-ui,sans-serif;fill:var(--accent,currentColor);stroke:none;opacity:.9}.symbulator-schematic .bh-cap{font:11px/1 ui-sans-serif,system-ui,sans-serif;fill:var(--accent,currentColor);stroke:none;opacity:.9;letter-spacing:.04em}</style><g transform="translate(58,146)"><path d="M0 0 L27.5 0 Q29 0 29.5878 1.38004 L31.4789 5.81996 Q32.0667 7.2 32.6545 5.81996 L37.6122 -5.81996 Q38.2 -7.2 38.7878 -5.81996 L43.7455 5.81996 Q44.3333 7.2 44.9211 5.81996 L49.8789 -5.81996 Q50.4667 -7.2 51.0545 -5.81996 L56.0122 5.81996 Q56.6 7.2 57.1878 5.81996 L62.1455 -5.81996 Q62.7333 -7.2 63.3211 -5.81996 L65.2122 -1.38004 Q65.8 0 67.3 0 L94.8 0"/></g><text class="lbl" x="105.4" y="131.39" text-anchor="middle"><tspan dy="0">8Ω</tspan></text><text class="lbl" x="105.4" y="114.49" text-anchor="middle"><tspan dy="0">R</tspan><tspan class="sub" dy="3.4">8</tspan></text><g transform="translate(152.8,58)"><path d="M0 0 L74.9 0 Q76.4 0 76.9878 1.38004 L78.8789 5.81996 Q79.4667 7.2 80.0545 5.81996 L85.0122 -5.81996 Q85.6 -7.2 86.1878 -5.81996 L91.1455 5.81996 Q91.7333 7.2 92.3211 5.81996 L97.2789 -5.81996 Q97.8667 -7.2 98.4545 -5.81996 L103.412 5.81996 Q104 7.2 104.588 5.81996 L109.546 -5.81996 Q110.133 -7.2 110.721 -5.81996 L112.612 -1.38004 Q113.2 0 114.7 0 L189.6 0"/></g><text class="lbl" x="247.6" y="43.39" text-anchor="middle"><tspan dy="0">18Ω</tspan></text><text class="lbl" x="247.6" y="26.49" text-anchor="middle"><tspan dy="0">R</tspan><tspan class="sub" dy="3.4">18</tspan></text><g transform="translate(58,146) rotate(90)"><path d="M0 0 L35.9 0 M68.9 0 L104.8 0"/><circle cx="52.4" cy="0" r="16.5" fill="none"/></g><text class="lbl" x="80.85" y="192.4" text-anchor="start"><tspan dy="0">E</tspan></text><text class="lbl" x="80.85" y="211.4" text-anchor="start"><tspan dy="0">18V</tspan></text><path d="M54.5 191.4 L61.5 191.4 M58 187.9 L58 194.9"/><path d="M54.5 205.4 L61.5 205.4"/><g transform="translate(152.8,146) rotate(90)"><path d="M0 0 L46.9 0 M57.9 0 L104.8 0"/><path d="M46.9 -13 L46.9 13"/><path d="M57.9 -13 L57.9 13"/></g><text class="lbl" x="172.15" y="192.4" text-anchor="start"><tspan dy="0">C</tspan><tspan class="sub" dy="3.4">1</tspan></text><text class="lbl" x="172.15" y="211.4" text-anchor="start"><tspan dy="0">1/6</tspan></text><g transform="translate(247.6,146) rotate(90)"><path d="M0 0 L32.5 0 Q34 0 34.5878 1.38004 L36.4789 5.81996 Q37.0667 7.2 37.6545 5.81996 L42.6122 -5.81996 Q43.2 -7.2 43.7878 -5.81996 L48.7455 5.81996 Q49.3333 7.2 49.9211 5.81996 L54.8789 -5.81996 Q55.4667 -7.2 56.0545 -5.81996 L61.0122 5.81996 Q61.6 7.2 62.1878 5.81996 L67.1455 -5.81996 Q67.7333 -7.2 68.3211 -5.81996 L70.2122 -1.38004 Q70.8 0 72.3 0 L104.8 0"/></g><text class="lbl" x="260.46" y="192.4" text-anchor="start"><tspan dy="0">R</tspan><tspan class="sub" dy="3.4">12</tspan></text><text class="lbl" x="260.46" y="211.4" text-anchor="start"><tspan dy="0">12Ω</tspan></text><g transform="translate(342.4,146) rotate(90)"><path d="M0 0 L32.5 0 Q34 0 34.5878 1.38004 L36.4789 5.81996 Q37.0667 7.2 37.6545 5.81996 L42.6122 -5.81996 Q43.2 -7.2 43.7878 -5.81996 L48.7455 5.81996 Q49.3333 7.2 49.9211 5.81996 L54.8789 -5.81996 Q55.4667 -7.2 56.0545 -5.81996 L61.0122 5.81996 Q61.6 7.2 62.1878 5.81996 L67.1455 -5.81996 Q67.7333 -7.2 68.3211 -5.81996 L70.2122 -1.38004 Q70.8 0 72.3 0 L104.8 0"/></g><text class="lbl" x="355.26" y="192.4" text-anchor="start"><tspan dy="0">R</tspan><tspan class="sub" dy="3.4">6</tspan></text><text class="lbl" x="355.26" y="211.4" text-anchor="start"><tspan dy="0">6Ω</tspan></text><g transform="translate(428.1,146) rotate(90)"><path d="M0 0 L46.9 0 M57.9 0 L104.8 0"/><path d="M46.9 -13 L46.9 13"/><path d="M57.9 -13 L57.9 13"/></g><text class="lbl" x="447.45" y="192.4" text-anchor="start"><tspan dy="0">C</tspan><tspan class="sub" dy="3.4">2</tspan></text><text class="lbl" x="447.45" y="211.4" text-anchor="start"><tspan dy="0">1/3</tspan></text><path d="M58 250.8 L58 262.8"/><path d="M47 262.8 L69 262.8"/><path d="M51 266.8 L65 266.8"/><path d="M55 270.8 L61 270.8"/><text class="lbl" x="58" y="284.8" text-anchor="middle"><tspan dy="0">0</tspan></text><text class="lbl" x="64" y="137.9" text-anchor="start"><tspan dy="0">s</tspan></text><text class="lbl" x="158.8" y="137.9" text-anchor="start"><tspan dy="0">a</tspan></text><text class="lbl" x="348.4" y="137.9" text-anchor="start"><tspan dy="0">b</tspan></text><line x1="152.8" y1="146" x2="247.6" y2="146"/><line x1="342.4" y1="146" x2="428.1" y2="146"/><line x1="58" y1="250.8" x2="428.1" y2="250.8"/><line x1="152.8" y1="58" x2="152.8" y2="146"/><line x1="342.4" y1="58" x2="342.4" y2="146"/><circle cx="152.8" cy="250.8" r="3.4" fill="currentColor" stroke="none"/><circle cx="247.6" cy="250.8" r="3.4" fill="currentColor" stroke="none"/><circle cx="342.4" cy="250.8" r="3.4" fill="currentColor" stroke="none"/><circle cx="152.8" cy="146" r="3.4" fill="currentColor" stroke="none"/><circle cx="342.4" cy="146" r="3.4" fill="currentColor" stroke="none"/></svg>