<svg xmlns="http://www.w3.org/2000/svg" viewBox="10 -8.50998 816.562 390.26" width="816.562" height="390.26" fill="none" stroke="currentColor" stroke-width="0.8" stroke-linecap="round" stroke-linejoin="round" class="symbulator-schematic"><style>.symbulator-schematic .lbl{font:14px/1 'Times New Roman',Times,'Liberation Serif',serif;fill:currentColor;stroke:none}.symbulator-schematic .sub{font-size:0.7em}.symbulator-schematic .ref{fill:var(--schematic-ref,#005b7f)}.symbulator-schematic .refk{stroke:var(--schematic-ref,#005b7f)}.symbulator-schematic .refh{fill:var(--schematic-ref,#005b7f);stroke:none}.symbulator-schematic .mesh{stroke:var(--accent,currentColor);opacity:.75}.symbulator-schematic .mesh-head{fill:var(--accent,currentColor);stroke:none;opacity:.75}.symbulator-schematic .bh-node{stroke:var(--accent,currentColor);fill:none;opacity:.85}.symbulator-schematic .bh-encl{stroke:var(--accent,currentColor);fill:none;opacity:.8;stroke-dasharray:5 4}.symbulator-schematic .mesh-lbl{font:12px/1 'Times New Roman',Times,'Liberation Serif',serif;fill:var(--accent,currentColor);stroke:none;opacity:.9}.symbulator-schematic .bh-cap{font:11px/1 'Times New Roman',Times,'Liberation Serif',serif;fill:var(--accent,currentColor);stroke:none;opacity:.9;letter-spacing:.04em}</style><g transform="translate(58,234)" stroke-width="1.2"><path d="M0 0 L45.5 0 Q47 0 47.5878 1.38004 L49.4789 5.81996 Q50.0667 7.2 50.6545 5.81996 L55.6122 -5.81996 Q56.2 -7.2 56.7878 -5.81996 L61.7455 5.81996 Q62.3333 7.2 62.9211 5.81996 L67.8789 -5.81996 Q68.4667 -7.2 69.0545 -5.81996 L74.0122 5.81996 Q74.6 7.2 75.1878 5.81996 L80.1455 -5.81996 Q80.7333 -7.2 81.3211 -5.81996 L83.2122 -1.38004 Q83.8 0 85.3 0 L130.8 0"/></g><text class="lbl" x="123.4" y="219.89" text-anchor="middle"><tspan dy="0">1 Ω</tspan></text><text class="lbl" x="123.4" y="203.24" text-anchor="middle"><tspan font-style="italic" dy="0">R</tspan><tspan class="sub" font-style="italic" dy="2.9">AA</tspan></text><g transform="translate(715.6,234) rotate(180)" stroke-width="1.2"><path d="M0 0 L45.5 0 Q47 0 47.5878 1.38004 L49.4789 5.81996 Q50.0667 7.2 50.6545 5.81996 L55.6122 -5.81996 Q56.2 -7.2 56.7878 -5.81996 L61.7455 5.81996 Q62.3333 7.2 62.9211 5.81996 L67.8789 -5.81996 Q68.4667 -7.2 69.0545 -5.81996 L74.0122 5.81996 Q74.6 7.2 75.1878 5.81996 L80.1455 -5.81996 Q80.7333 -7.2 81.3211 -5.81996 L83.2122 -1.38004 Q83.8 0 85.3 0 L130.8 0"/></g><text class="lbl" x="650.2" y="219.89" text-anchor="middle"><tspan dy="0">1 Ω</tspan></text><text class="lbl" x="650.2" y="203.24" text-anchor="middle"><tspan font-style="italic" dy="0">R</tspan><tspan class="sub" font-style="italic" dy="2.9">BB</tspan></text><g transform="translate(452.8,234) rotate(180)" stroke-width="1.2"><path d="M0 0 L46.1 0 Q47.6 0 48.1878 1.38004 L50.0789 5.81996 Q50.6667 7.2 51.2545 5.81996 L56.2122 -5.81996 Q56.8 -7.2 57.3878 -5.81996 L62.3455 5.81996 Q62.9333 7.2 63.5211 5.81996 L68.4789 -5.81996 Q69.0667 -7.2 69.6545 -5.81996 L74.6122 5.81996 Q75.2 7.2 75.7878 5.81996 L80.7455 -5.81996 Q81.3333 -7.2 81.9211 -5.81996 L83.8122 -1.38004 Q84.4 0 85.9 0 L132 0"/></g><text class="lbl" x="386.8" y="219.89" text-anchor="middle"><tspan dy="0">1 Ω</tspan></text><text class="lbl" x="386.8" y="203.24" text-anchor="middle"><tspan font-style="italic" dy="0">R</tspan><tspan class="sub" font-style="italic" dy="2.9">CC</tspan></text><g transform="translate(188.8,234)" stroke-width="1.2"><path d="M0 0 L46.1 0 Q47.6 0 48.1878 1.38004 L50.0789 5.81996 Q50.6667 7.2 51.2545 5.81996 L56.2122 -5.81996 Q56.8 -7.2 57.3878 -5.81996 L62.3455 5.81996 Q62.9333 7.2 63.5211 5.81996 L68.4789 -5.81996 Q69.0667 -7.2 69.6545 -5.81996 L74.6122 5.81996 Q75.2 7.2 75.7878 5.81996 L80.7455 -5.81996 Q81.3333 -7.2 81.9211 -5.81996 L83.8122 -1.38004 Q84.4 0 85.9 0 L132 0"/></g><text class="lbl" x="254.8" y="219.89" text-anchor="middle"><tspan dy="0">100+24πj</tspan></text><text class="lbl" x="254.8" y="203.24" text-anchor="middle"><tspan font-style="italic" dy="0">R</tspan><tspan class="sub" font-style="italic" dy="2.9">AC</tspan></text><g transform="translate(320.8,146)" stroke-width="1.2"><path d="M0 0 L112.1 0 Q113.6 0 114.188 1.38004 L116.079 5.81996 Q116.667 7.2 117.254 5.81996 L122.212 -5.81996 Q122.8 -7.2 123.388 -5.81996 L128.346 5.81996 Q128.933 7.2 129.521 5.81996 L134.479 -5.81996 Q135.067 -7.2 135.654 -5.81996 L140.612 5.81996 Q141.2 7.2 141.788 5.81996 L146.746 -5.81996 Q147.333 -7.2 147.921 -5.81996 L149.812 -1.38004 Q150.4 0 151.9 0 L264 0"/></g><text class="lbl" x="452.8" y="131.89" text-anchor="middle"><tspan dy="0">100+24πj</tspan></text><text class="lbl" x="452.8" y="115.24" text-anchor="middle"><tspan font-style="italic" dy="0">R</tspan><tspan class="sub" font-style="italic" dy="2.9">CB</tspan></text><g transform="translate(584.8,58) rotate(180)" stroke-width="1.2"><path d="M0 0 L178.1 0 Q179.6 0 180.188 1.38004 L182.079 5.81996 Q182.667 7.2 183.254 5.81996 L188.212 -5.81996 Q188.8 -7.2 189.388 -5.81996 L194.346 5.81996 Q194.933 7.2 195.521 5.81996 L200.479 -5.81996 Q201.067 -7.2 201.654 -5.81996 L206.612 5.81996 Q207.2 7.2 207.788 5.81996 L212.746 -5.81996 Q213.333 -7.2 213.921 -5.81996 L215.812 -1.38004 Q216.4 0 217.9 0 L396 0"/></g><text class="lbl" x="386.8" y="43.89" text-anchor="middle"><tspan dy="0">100+24πj</tspan></text><text class="lbl" x="386.8" y="27.24" text-anchor="middle"><tspan font-style="italic" dy="0">R</tspan><tspan class="sub" font-style="italic" dy="2.9">BA</tspan></text><g transform="translate(58,234) rotate(90)" stroke-width="1.2"><path d="M0 0 L26.2 0 M59.8 0 L86 0"/><circle cx="43" cy="0" r="16.8" fill="none"/></g><text class="lbl" x="80.9" y="271.1" text-anchor="start"><tspan font-style="italic" dy="0">E</tspan><tspan class="sub" font-style="italic" dy="2.9">A1</tspan></text><text class="lbl" x="80.9" y="287.75" text-anchor="start"><tspan dy="0">100 V</tspan></text><path d="M53.68 267.56 L62.32 267.56 M58 263.24 L58 271.88" stroke-width="0.8"/><path d="M53.68 286.44 L62.32 286.44" stroke-width="0.8"/><g transform="translate(715.6,234) rotate(90)" stroke-width="1.2"><path d="M0 0 L26.2 0 M59.8 0 L86 0"/><circle cx="43" cy="0" r="16.8" fill="none"/></g><text class="lbl" x="738.5" y="271.1" text-anchor="start"><tspan font-style="italic" dy="0">E</tspan><tspan class="sub" font-style="italic" dy="2.9">B1</tspan></text><text class="lbl" x="738.5" y="287.75" text-anchor="start"><tspan dy="0">100∠-120°</tspan></text><path d="M711.28 267.56 L719.92 267.56 M715.6 263.24 L715.6 271.88" stroke-width="0.8"/><path d="M711.28 286.44 L719.92 286.44" stroke-width="0.8"/><g transform="translate(452.8,234) rotate(90)" stroke-width="1.2"><path d="M0 0 L26.2 0 M59.8 0 L86 0"/><circle cx="43" cy="0" r="16.8" fill="none"/></g><text class="lbl" x="475.7" y="271.1" text-anchor="start"><tspan font-style="italic" dy="0">E</tspan><tspan class="sub" font-style="italic" dy="2.9">C1</tspan></text><text class="lbl" x="475.7" y="287.75" text-anchor="start"><tspan dy="0">100∠120°</tspan></text><path d="M448.48 267.56 L457.12 267.56 M452.8 263.24 L452.8 271.88" stroke-width="0.8"/><path d="M448.48 286.44 L457.12 286.44" stroke-width="0.8"/><path d="M58 320 L58 332"/><path d="M49 332 L67 332" stroke-width="1.2"/><path d="M52 335.5 L64 335.5" stroke-width="1.2"/><path d="M55 339 L61 339" stroke-width="1.2"/><text class="lbl" x="58" y="352.75" text-anchor="middle"><tspan dy="0">0</tspan></text><text class="lbl" x="64" y="226.4" text-anchor="start"><tspan dy="0">na1</tspan></text><text class="lbl" x="194.8" y="226.4" text-anchor="start"><tspan dy="0">na2</tspan></text><text class="lbl" x="326.8" y="226.4" text-anchor="start"><tspan dy="0">nc2</tspan></text><text class="lbl" x="458.8" y="226.4" text-anchor="start"><tspan dy="0">nc1</tspan></text><text class="lbl" x="590.8" y="226.4" text-anchor="start"><tspan dy="0">nb2</tspan></text><text class="lbl" x="721.6" y="226.4" text-anchor="start"><tspan dy="0">nb1</tspan></text><line x1="58" y1="320" x2="715.6" y2="320"/><line x1="188.8" y1="58" x2="188.8" y2="234"/><line x1="320.8" y1="146" x2="320.8" y2="234"/><line x1="584.8" y1="58" x2="584.8" y2="234"/><circle cx="452.8" cy="320" r="3.2" fill="currentColor" stroke="none"/><circle cx="188.8" cy="234" r="3.2" fill="currentColor" stroke="none"/><circle cx="320.8" cy="234" r="3.2" fill="currentColor" stroke="none"/><circle cx="584.8" cy="146" r="3.2" fill="currentColor" stroke="none"/></svg>