<svg xmlns="http://www.w3.org/2000/svg" viewBox="10 -11.5191 635.734 390.419" width="635.734" height="390.419" fill="none" stroke="currentColor" stroke-width="1.7" stroke-linecap="round" stroke-linejoin="round" class="symbulator-schematic"><style>.symbulator-schematic .lbl{font:13px/1 ui-sans-serif,system-ui,sans-serif;fill:currentColor;stroke:none}.symbulator-schematic .sub{font-size:0.72em}</style><g transform="translate(58,58)"><path d="M0 0 L113.6 0 L116.667 7.2 L122.8 -7.2 L128.933 7.2 L135.067 -7.2 L141.2 7.2 L147.333 -7.2 L150.4 0 L264 0" stroke-linejoin="miter"/></g><text class="lbl" x="190" y="41.3809" text-anchor="middle"><tspan dy="0">18Ω</tspan></text><text class="lbl" x="190" y="24.4809" text-anchor="middle"><tspan dy="0">R</tspan><tspan class="sub" dy="3.4">18</tspan></text><g transform="translate(58,146) rotate(90)"><path d="M0 0 L69.5 0 M80.5 0 L150 0"/><path d="M69.5 -13 L69.5 13"/><path d="M80.5 -13 L80.5 13"/></g><text class="lbl" x="77.35" y="215" text-anchor="start"><tspan dy="0">C</tspan><tspan class="sub" dy="3.4">1</tspan></text><text class="lbl" x="77.35" y="234" text-anchor="start"><tspan dy="0">1/6</tspan></text><g transform="translate(190,146) rotate(90)"><path d="M0 0 L56.6 0 L59.6667 7.2 L65.8 -7.2 L71.9333 7.2 L78.0667 -7.2 L84.2 7.2 L90.3333 -7.2 L93.4 0 L150 0" stroke-linejoin="miter"/></g><text class="lbl" x="204.869" y="215" text-anchor="start"><tspan dy="0">R</tspan><tspan class="sub" dy="3.4">12</tspan></text><text class="lbl" x="204.869" y="234" text-anchor="start"><tspan dy="0">12Ω</tspan></text><g transform="translate(322,146) rotate(90)"><path d="M0 0 L56.6 0 L59.6667 7.2 L65.8 -7.2 L71.9333 7.2 L78.0667 -7.2 L84.2 7.2 L90.3333 -7.2 L93.4 0 L150 0" stroke-linejoin="miter"/></g><text class="lbl" x="336.869" y="215" text-anchor="start"><tspan dy="0">R</tspan><tspan class="sub" dy="3.4">6</tspan></text><text class="lbl" x="336.869" y="234" text-anchor="start"><tspan dy="0">6Ω</tspan></text><g transform="translate(454,146) rotate(90)"><path d="M0 0 L69.5 0 M80.5 0 L150 0"/><path d="M69.5 -13 L69.5 13"/><path d="M80.5 -13 L80.5 13"/></g><text class="lbl" x="473.35" y="215" text-anchor="start"><tspan dy="0">C</tspan><tspan class="sub" dy="3.4">2</tspan></text><text class="lbl" x="473.35" y="234" text-anchor="start"><tspan dy="0">1/3</tspan></text><g transform="translate(586,296) rotate(-90)"><path d="M0 0 L60 0 M90 0 L150 0"/><circle cx="75" cy="0" r="15" fill="none"/><path d="M66 0 L84 0"/><path d="M78 -4 L84 0 L78 4" fill="currentColor"/></g><text class="lbl" x="607.35" y="215" text-anchor="start"><tspan dy="0">J</tspan><tspan class="sub" dy="3.4">S</tspan></text><path d="M58 296 L58 308"/><path d="M47 308 L69 308"/><path d="M51 312 L65 312"/><path d="M55 316 L61 316"/><text class="lbl" x="74" y="317" text-anchor="start"><tspan dy="0">0</tspan></text><text class="lbl" x="64" y="137.9" text-anchor="start"><tspan dy="0">a</tspan></text><text class="lbl" x="328" y="137.9" text-anchor="start"><tspan dy="0">b</tspan></text><text class="lbl" x="36" y="348" text-anchor="start"><tspan dy="0">J</tspan><tspan class="sub" dy="3.4">S</tspan><tspan dy="-3.4"> = </tspan><tspan dy="0">10e^(-t)sin(2t+30°)</tspan></text><line x1="58" y1="146" x2="190" y2="146"/><line x1="322" y1="146" x2="586" y2="146"/><line x1="58" y1="296" x2="586" y2="296"/><line x1="58" y1="58" x2="58" y2="146"/><line x1="322" y1="58" x2="322" y2="146"/><circle cx="190" cy="296" r="3.4" fill="currentColor" stroke="none"/><circle cx="322" cy="296" r="3.4" fill="currentColor" stroke="none"/><circle cx="454" cy="296" r="3.4" fill="currentColor" stroke="none"/><circle cx="58" cy="146" r="3.4" fill="currentColor" stroke="none"/><circle cx="322" cy="146" r="3.4" fill="currentColor" stroke="none"/><circle cx="454" cy="146" r="3.4" fill="currentColor" stroke="none"/></svg>