<svg xmlns="http://www.w3.org/2000/svg" viewBox="10 13.9 499.269 277" width="499.269" height="277" fill="none" stroke="currentColor" stroke-width="1.7" stroke-linecap="round" stroke-linejoin="round" class="symbulator-schematic"><style>.symbulator-schematic .lbl{font:13px/1 ui-sans-serif,system-ui,sans-serif;fill:currentColor;stroke:none}.symbulator-schematic .sub{font-size:0.72em}</style><g transform="translate(58,58) rotate(90)"><path d="M0 0 L52 0 a7 7 0 1 1 11.5 0 a7 7 0 1 1 11.5 0 a7 7 0 1 1 11.5 0 a7 7 0 1 1 11.5 0 L150 0"/></g><text class="lbl" x="75.3422" y="127" text-anchor="start"><tspan dy="0">L</tspan><tspan class="sub" dy="3.4">1</tspan></text><text class="lbl" x="75.3422" y="146" text-anchor="start"><tspan dy="0">2H</tspan></text><g transform="translate(190,58) rotate(90)"><path d="M0 0 L56.6 0 L59.6667 7.2 L65.8 -7.2 L71.9333 7.2 L78.0667 -7.2 L84.2 7.2 L90.3333 -7.2 L93.4 0 L150 0" stroke-linejoin="miter"/></g><text class="lbl" x="204.869" y="127" text-anchor="start"><tspan dy="0">R</tspan><tspan class="sub" dy="3.4">1</tspan></text><text class="lbl" x="204.869" y="146" text-anchor="start"><tspan dy="0">3Ω</tspan></text><g transform="translate(322,58) rotate(90)"><path d="M0 0 L52 0 a7 7 0 1 1 11.5 0 a7 7 0 1 1 11.5 0 a7 7 0 1 1 11.5 0 a7 7 0 1 1 11.5 0 L150 0"/></g><text class="lbl" x="339.342" y="127" text-anchor="start"><tspan dy="0">L</tspan><tspan class="sub" dy="3.4">2</tspan></text><text class="lbl" x="339.342" y="146" text-anchor="start"><tspan dy="0">2H</tspan></text><g transform="translate(454,58) rotate(90)"><path d="M0 0 L56.6 0 L59.6667 7.2 L65.8 -7.2 L71.9333 7.2 L78.0667 -7.2 L84.2 7.2 L90.3333 -7.2 L93.4 0 L150 0" stroke-linejoin="miter"/></g><text class="lbl" x="468.869" y="127" text-anchor="start"><tspan dy="0">R</tspan><tspan class="sub" dy="3.4">2</tspan></text><text class="lbl" x="468.869" y="146" text-anchor="start"><tspan dy="0">3Ω</tspan></text><path d="M58 208 L58 220"/><path d="M47 220 L69 220"/><path d="M51 224 L65 224"/><path d="M55 228 L61 228"/><text class="lbl" x="74" y="229" text-anchor="start"><tspan dy="0">0</tspan></text><text class="lbl" x="64" y="49.9" text-anchor="start"><tspan dy="0">1</tspan></text><text class="lbl" x="328" y="49.9" text-anchor="start"><tspan dy="0">2</tspan></text><text class="lbl" x="36" y="260" text-anchor="start"><tspan dy="0">M</tspan><tspan dy="0"> = </tspan><tspan dy="0">1H</tspan><tspan dy="0">  (couples </tspan><tspan dy="0">L</tspan><tspan class="sub" dy="3.4">1</tspan><tspan dy="-3.4"> and </tspan><tspan dy="0">L</tspan><tspan class="sub" dy="3.4">2</tspan><tspan dy="-3.4">)</tspan></text><line x1="58" y1="58" x2="190" y2="58"/><line x1="322" y1="58" x2="454" y2="58"/><line x1="58" y1="208" x2="454" y2="208"/><circle cx="190" cy="208" r="3.4" fill="currentColor" stroke="none"/><circle cx="322" cy="208" r="3.4" fill="currentColor" stroke="none"/><circle cx="48" cy="104" r="3.4" fill="currentColor" stroke="none"/><circle cx="312" cy="104" r="3.4" fill="currentColor" stroke="none"/></svg>