<svg xmlns="http://www.w3.org/2000/svg" viewBox="10 14 501.4 276" width="501.4" height="276" fill="none" stroke="currentColor" stroke-width="1.7" stroke-linecap="round" stroke-linejoin="round" class="symbulator-schematic"><style>.symbulator-schematic .lbl{font:13px/1 ui-sans-serif,system-ui,sans-serif;fill:currentColor;stroke:none}</style><g transform="translate(58,58) rotate(90)"><path d="M0 0 L52 0 a5.75 5.75 0 0 1 11.5 0 a5.75 5.75 0 0 1 11.5 0 a5.75 5.75 0 0 1 11.5 0 a5.75 5.75 0 0 1 11.5 0 L150 0"/></g><text class="lbl" x="75" y="130" text-anchor="start">l1</text><text class="lbl" x="75" y="145" text-anchor="start">2H</text><g transform="translate(190,58) rotate(90)"><path d="M0 0 L52 0 L55.8333 9 L63.5 -9 L71.1667 9 L78.8333 -9 L86.5 9 L94.1667 -9 L98 0 L150 0"/></g><text class="lbl" x="207" y="130" text-anchor="start">r1</text><text class="lbl" x="207" y="145" text-anchor="start">3Ω</text><g transform="translate(322,58) rotate(90)"><path d="M0 0 L52 0 a5.75 5.75 0 0 1 11.5 0 a5.75 5.75 0 0 1 11.5 0 a5.75 5.75 0 0 1 11.5 0 a5.75 5.75 0 0 1 11.5 0 L150 0"/></g><text class="lbl" x="339" y="130" text-anchor="start">l2</text><text class="lbl" x="339" y="145" text-anchor="start">2H</text><g transform="translate(454,58) rotate(90)"><path d="M0 0 L52 0 L55.8333 9 L63.5 -9 L71.1667 9 L78.8333 -9 L86.5 9 L94.1667 -9 L98 0 L150 0"/></g><text class="lbl" x="471" y="130" text-anchor="start">r2</text><text class="lbl" x="471" y="145" text-anchor="start">3Ω</text><path d="M58 208 L58 220"/><path d="M47 220 L69 220"/><path d="M51 224 L65 224"/><path d="M55 228 L61 228"/><text class="lbl" x="74" y="229" text-anchor="start">0</text><text class="lbl" x="64" y="52" text-anchor="start">1</text><text class="lbl" x="328" y="52" text-anchor="start">2</text><text class="lbl" x="36" y="260" text-anchor="start">m = 1H  (couples l1 and l2)</text><line x1="58" y1="58" x2="190" y2="58"/><line x1="322" y1="58" x2="454" y2="58"/><line x1="58" y1="208" x2="454" y2="208"/><circle cx="190" cy="208" r="3.4" fill="currentColor" stroke="none"/><circle cx="322" cy="208" r="3.4" fill="currentColor" stroke="none"/><circle cx="48" cy="104" r="3.4" fill="currentColor" stroke="none"/><circle cx="312" cy="104" r="3.4" fill="currentColor" stroke="none"/></svg>